# xmcd
#
# Track frame offsets: 
#        150
#        23774
#        33467
#        52402
#        63907
#        73012
#        95623
#        119824
#        157626
#        174175
#        182289
#        203362
#        215206
#        240395
#
# Disc length: 3403 seconds
#
# Revision: 8
# Processed by: cddbd v1.5.2PL0 Copyright (c) Steve Scherf et al.
# Submitted via: ExactAudioCopyFreeDBPlugin 1.0
#
DISCID=bb0d490e
DTITLE=Rolando Villazon - Cielo e Mar (2008)
DYEAR=2008
DGENRE=Opera
TTITLE0=Rolando Villazón - Daniele Callegari: Milan Symphony Orchestra 
TTITLE0=/ PONCHIELLI: La Gioconda - Cielo e mar!
TTITLE1=Rolando Villazón - Daniele Callegari: Milan Symphony Orchestra 
TTITLE1=/ CILEA: Adriana Lecouvreur - La dolcissima effigie sorridente
TTITLE2=Rolando Villazón - Daniele Callegari: Milan Symphony Orchestra 
TTITLE2=/ MERCADANTE: Il giuramento - La dea di tutti i cor!
TTITLE3=Rolando Villazón - Daniele Callegari: Milan Symphony Orchestra 
TTITLE3=/ BOITO: Mefistofele - Dai campi, dai prati
TTITLE4=Rolando Villazón - Daniele Callegari: Milan Symphony Orchestra 
TTITLE4=/ PIETRI: Maristella - Io conosco un giardino
TTITLE5=Rolando Villazón - Daniele Callegari: Milan Symphony Orchestra 
TTITLE5=/ GOMES: Fosca - Intenditi con Dio! - Ah! Se tu sei fra gli an
TTITLE5=geli
TTITLE6=Rolando Villazón - Daniele Callegari: Milan Symphony Orchestra 
TTITLE6=/ VERDI: Simon Boccanegra - O inferno! Amelia qui - Sento avva
TTITLE6=mpar nell'anima
TTITLE7=Rolando Villazón - Daniele Callegari: Milan Symphony Orchestra 
TTITLE7=/ DONIZETTI: Poliuto - Velene è l'aura ch'io respiro! - Sfolgo
TTITLE7=rò divino raggio
TTITLE8=Rolando Villazón - Daniele Callegari: Milan Symphony Orchestra 
TTITLE8=/ MERCADANTE: Il giuramento - Compita è omai - Fu celeste quel
TTITLE8=contento
TTITLE9=Rolando Villazón - Daniele Callegari: Milan Symphony Orchestra 
TTITLE9=/ CILEA: Adriana Lecouvreur - L'anima ho stanca
TTITLE10=Rolando Villazón - Daniele Callegari: Milan Symphony Orchestra
TTITLE10=PONCHIELLI: Il figliuol prodigo - Il padre!... Il padre mi
TTITLE10=o - Tenda natal
TTITLE11=Rolando Villazón - Daniele Callegari: Milan Symphony Orchestra
TTITLE11=BOITO: Mefistofele - Epilogue: Giunto sul passo estremo
TTITLE12=Rolando Villazón - Daniele Callegari: Milan Symphony Orchestra
TTITLE12=VERDI: Luisa Miller - Oh! fede negar potessi - Quando le s
TTITLE12=ere al placido
TTITLE13=Rolando Villazón - Daniele Callegari: Milan Symphony Orchestra
TTITLE13=VERDI: Luisa Miller - L'ara o l'avello apprestami
EXTD=DG, 477 7593
EXTT0=
EXTT1=
EXTT2=
EXTT3=
EXTT4=
EXTT5=
EXTT6=
EXTT7=
EXTT8=
EXTT9=
EXTT10=
EXTT11=
EXTT12=
EXTT13=
PLAYORDER=
